<svg width="128" height="52" viewBox="0 0 128 52" fill="none" xmlns="http://www.w3.org/2000/svg">
<g clip-path="url(#clip0_111_909)">
<path d="M0.66069 0.960907V4.42774H25.3185V0.960907H0.66069ZM28.812 0.960907V4.42774H63.9505C63.9505 4.42774 60.3612 0.960907 55.6075 0.960907H28.812ZM70.8436 0.960907V4.42774H92.1019L90.84 0.960907H70.8436ZM107.343 0.960907L106.081 4.42774H127.146V0.960907H107.343ZM0.66069 7.70308V11.1699H25.3185V7.70308H0.66069ZM28.812 7.70803V11.1699H68.028C68.028 11.1699 67.57 8.50175 66.7711 7.70803H28.812ZM70.8436 7.70803V11.1699H94.4326L93.2647 7.70803H70.8436ZM104.819 7.70803L103.651 11.1699H127.146V7.70803H104.819ZM7.74678 14.4453V17.9165H18.4254V14.4453H7.74678ZM35.8981 14.4453V17.9165H46.5767V14.4453H35.8981ZM56.9634 14.4453V17.9165H67.642C67.642 17.9165 68.3199 16.0832 68.3199 14.445H56.9634V14.4453ZM77.9297 14.4453V17.9165H96.8622L95.6004 14.445H77.9297V14.4453ZM102.493 14.4453L101.227 17.9168H120.253V14.4453H102.493ZM7.74678 21.1924V24.6587H18.4254V21.1924H7.74678ZM35.8981 21.1924V24.6587H63.1736C63.1736 24.6587 65.4553 22.8798 66.1822 21.1919H35.8981V21.1924ZM77.9297 21.1924V24.6587H88.6083V22.7288L89.2862 24.6587H108.847L109.575 22.7288V24.6587H120.253V21.1924H100.207L99.1434 24.129L98.0746 21.1924H77.9297ZM7.74678 27.934V31.4009H18.4254V27.934H7.74678ZM35.8981 27.934V31.4009H66.1822C65.4551 29.7184 63.1736 27.934 63.1736 27.934H35.8981ZM77.9297 27.934V31.4009H88.6083V27.934H77.9297ZM90.5481 27.934L91.8396 31.4009H106.507L107.734 27.934H90.5481ZM109.575 27.934V31.4009H120.253V27.934H109.575ZM7.74678 34.6762V38.1431H18.4254V34.6762H7.74678ZM35.8981 34.6762V38.1431H46.5767V34.6762H35.8981ZM56.9634 34.6762V38.1431H68.3199C68.3199 36.5069 67.642 34.6762 67.642 34.6762H56.9634ZM77.9297 34.6762V38.1431H88.6083V34.6762H77.9297ZM92.9728 34.6762L94.2247 38.1431H104.057L105.319 34.6762H92.9728ZM109.575 34.6762V38.1431H120.253V34.6762H109.575ZM0.853677 41.4186V44.8902H25.5115V41.4184H0.853677V41.4186ZM28.812 41.4186V44.8902H66.7711C67.57 44.0952 68.028 41.4184 68.028 41.4184H28.812V41.4186ZM71.0366 41.4186V44.8902H88.6083V41.4184H71.0366V41.4186ZM95.4024 41.4186L96.689 44.8902H101.692L102.899 41.4184H95.4024V41.4186ZM109.575 41.4186V44.8902H127.339V41.4184H109.575V41.4186ZM0.853677 48.1655V51.6324H25.5115V48.1655H0.853677ZM28.812 48.1655V51.6272H55.6075C60.3612 51.6272 63.9505 48.1653 63.9505 48.1653H28.812V48.1655ZM71.0366 48.1655V51.6324H88.6083V48.1655H71.0366ZM97.842 48.1655L99.0791 51.6222L99.2919 51.6272L100.549 48.1653H97.842V48.1655ZM109.575 48.1655V51.6324H127.339V48.1655H109.575Z" fill="#1F70C1"/>
</g>
<defs>
<clipPath id="clip0_111_909">
<rect width="126.679" height="50.7209" fill="white" transform="translate(0.66069 0.960907)"/>
</clipPath>
</defs>
</svg>
