<svg width="62" height="62" viewBox="0 0 62 62" fill="none" xmlns="http://www.w3.org/2000/svg">
<path d="M53.1379 11.8866L49.7321 8.48074C48.7917 7.48949 47.1396 7.48949 46.1483 8.48074L23.375 31.2541L30.3646 38.2437L53.1379 15.4703C54.1292 14.4791 54.1292 12.827 53.1379 11.8866ZM18.2917 35.702C16.2694 35.702 14.3299 36.5053 12.9 37.9353C11.47 39.3653 10.6667 41.3047 10.6667 43.327C10.6667 46.6566 7.71833 48.4103 5.58333 48.4103C7.92167 51.5112 11.9375 53.4937 15.75 53.4937C18.4464 53.4937 21.0323 52.4225 22.9389 50.5159C24.8455 48.6093 25.9167 46.0234 25.9167 43.327C25.9167 41.3047 25.1133 39.3653 23.6834 37.9353C22.2534 36.5053 20.3139 35.702 18.2917 35.702Z" fill="#2091F9"/>
</svg>
