<svg width="56" height="57" viewBox="0 0 56 57" fill="none" xmlns="http://www.w3.org/2000/svg">
<path d="M22.7498 48.7688C26.9031 47.1355 25.9931 42.6321 23.8931 39.7855C21.8164 36.8688 18.9464 34.8621 16.0531 32.9255C13.9887 31.6243 12.1455 30.0016 10.5931 28.1188C9.93978 27.3488 8.60978 25.9255 9.96311 25.6455C11.3398 25.3655 13.7198 26.7188 14.9331 27.2321C17.0564 28.1188 19.1564 29.1455 21.1164 30.3588L23.4731 26.3921C19.8331 23.9888 15.1664 21.8655 10.8264 21.2355C8.35311 20.8621 5.73978 21.3755 4.89978 24.0588C4.15311 26.3688 5.34311 28.7021 6.69644 30.5221C9.89311 34.7921 14.8631 36.8455 18.5731 40.5321C19.3664 41.3021 20.3231 42.2121 20.7898 43.2855C21.2798 44.3121 21.1631 44.3821 20.0664 44.3821C17.1731 44.3821 13.5564 42.1188 11.1998 40.6255L8.84311 44.5921C12.4131 46.7855 18.3864 50.2155 22.7498 48.7688ZM48.6264 12.3688C49.1398 11.8555 49.1398 11.0155 48.6264 10.5255L45.5931 7.49214C45.3487 7.25661 45.0225 7.125 44.6831 7.125C44.3437 7.125 44.0175 7.25661 43.7731 7.49214L41.3931 9.87214L46.2464 14.7255L48.6264 12.3688ZM25.6664 25.5988V30.4521H30.5198L44.8698 16.1021L40.0164 11.2488L25.6664 25.5988Z" fill="#2091F9"/>
</svg>
